# xmcd
#
# Track frame offsets: 
#        150
#        34082
#        60549
#        82374
#        107298
#        125248
#        144937
#        167997
#        184686
#        198148
#        214833
#        232470
#        250174
#        269369
#        297151
#        325118
#
# Disc length: 4646 seconds
#
# Revision: 0
# Processed by: cddbd v1.5.2PL0 Copyright (c) Steve Scherf et al.
# Submitted via: ExactAudioCopy v0.95b3
#
DISCID=f3122410
DTITLE=Curtis Mayfield  - People Get Ready - disc 2  FLAC
DYEAR=1900
DGENRE=
TTITLE0=Beautiful Brother of Mine
TTITLE1=Get Down
TTITLE2=We Got To Have Peace
TTITLE3=Freddie's Dead (Theme from "Superfly")
TTITLE4=Superfly
TTITLE5=Give Me Your Love
TTITLE6=Pusherman
TTITLE7=Future Shock
TTITLE8=If I Were Only A Child Again
TTITLE9=Can't Say Nothin'
TTITLE10=Kung Fu
TTITLE11=Sweet Exorcist
TTITLE12=To Be Invisible
TTITLE13=Mother's Son
TTITLE14=Billy Jack
TTITLE15=So In Love
EXTD=
EXTT0=
EXTT1=
EXTT2=
EXTT3=
EXTT4=
EXTT5=
EXTT6=
EXTT7=
EXTT8=
EXTT9=
EXTT10=
EXTT11=
EXTT12=
EXTT13=
EXTT14=
EXTT15=
PLAYORDER=
